<svg xmlns="http://www.w3.org/2000/svg" width="44.176" height="49.929" viewBox="0 0 44.176 49.929">
  <g id="Group_3680" data-name="Group 3680" transform="translate(-1282.412 -618.853)">
    <path id="Icon_awesome-coins" data-name="Icon awesome-coins" d="M0,27.974v2.947c0,2.436,5.936,4.417,13.252,4.417S26.5,33.357,26.5,30.921V27.974c-2.851,2.008-8.061,2.947-13.252,2.947S2.851,29.982,0,27.974Zm0-7.24v3.561c0,2.436,5.936,4.417,13.252,4.417S26.5,26.731,26.5,24.295V20.733c-2.851,2.347-8.068,3.561-13.252,3.561S2.851,23.08,0,20.733Zm13.252-9.69C5.936,11.043,0,13.514,0,16.565s5.936,5.522,13.252,5.522S26.5,19.615,26.5,16.565,20.568,11.043,13.252,11.043Z" transform="translate(1291.748 607.81)" fill="#9ba3cc"/>
    <g id="Group_3678" data-name="Group 3678" transform="translate(228.25)">
      <path id="Icon_awesome-coins-2" data-name="Icon awesome-coins" d="M0,27.974v2.947c0,2.436,5.936,4.417,13.252,4.417S26.5,33.357,26.5,30.921V27.974c-2.851,2.008-8.061,2.947-13.252,2.947S2.851,29.982,0,27.974ZM22.086,8.835c7.316,0,13.252-1.981,13.252-4.417S29.4,0,22.086,0,8.835,1.981,8.835,4.417,14.77,8.835,22.086,8.835ZM0,20.733v3.561c0,2.436,5.936,4.417,13.252,4.417S26.5,26.731,26.5,24.295V20.733c-2.851,2.347-8.068,3.561-13.252,3.561S2.851,23.08,0,20.733Zm28.712.759c3.955-.766,6.626-2.188,6.626-3.824V14.722A16.949,16.949,0,0,1,28.712,17.1Zm-15.46-10.45C5.936,11.043,0,13.514,0,16.565s5.936,5.522,13.252,5.522S26.5,19.615,26.5,16.565,20.568,11.043,13.252,11.043Zm15.136,3.886c4.141-.745,6.95-2.209,6.95-3.886V8.1c-2.45,1.732-6.66,2.664-11.091,2.885A7.729,7.729,0,0,1,28.388,14.929Z" transform="translate(1063 633.443)" fill="#9ba3cc"/>
      <path id="Icon_awesome-coins-3" data-name="Icon awesome-coins" d="M35.338,27.974v2.947c0,2.436-5.936,4.417-13.252,4.417S8.834,33.357,8.834,30.921V27.974c2.85,2.008,8.061,2.947,13.252,2.947S32.487,29.982,35.338,27.974ZM13.252,8.834C5.936,8.834,0,6.854,0,4.417S5.936,0,13.252,0,26.5,1.981,26.5,4.417,20.568,8.834,13.252,8.834Zm22.086,11.9v3.561c0,2.436-5.936,4.417-13.252,4.417S8.834,26.731,8.834,24.295V20.733c2.85,2.347,8.068,3.561,13.252,3.561S32.487,23.08,35.338,20.733Zm-28.712.759C2.671,20.727,0,19.3,0,17.669V14.722A16.949,16.949,0,0,0,6.626,17.1Zm15.46-10.45c7.316,0,13.252,2.471,13.252,5.522S29.4,22.086,22.086,22.086,8.834,19.615,8.834,16.565,14.77,11.043,22.086,11.043ZM6.95,14.929C2.809,14.183,0,12.72,0,11.043V8.1c2.45,1.732,6.66,2.664,11.091,2.885A7.729,7.729,0,0,0,6.95,14.929Z" transform="translate(1054.162 633.443)" fill="#9ba3cc"/>
    </g>
  </g>
</svg>
